<?xml version="1.0" standalone="no"?>
<!DOCTYPE svg PUBLIC "-//W3C//DTD SVG 20010904//EN" "http://www.w3.org/TR/2001/REC-SVG-20010904/DTD/svg10.dtd">
<svg version="1.0" xmlns="http://www.w3.org/2000/svg" width="1280.000000pt" height="1185.000000pt" viewBox="0 0 1280.000000 1185.000000" preserveAspectRatio="xMidYMid meet">
<metadata>
Created by potrace 1.15, written by Peter Selinger 2001-2017
</metadata>
<g transform="translate(0.000000,1185.000000) scale(0.100000,-0.100000)" fill="#000000" stroke="none">
<path d="M6090 11844 c-470 -24 -944 -90 -1325 -184 -1485 -366 -2645 -1214
-3415 -2500 -349 -583 -608 -1252 -759 -1965 -114 -542 -168 -1029 -178 -1605
l-6 -346 26 -29 c24 -29 28 -30 122 -32 54 -1 100 -4 102 -7 10 -10 -20 -88
-58 -147 -82 -126 -233 -253 -369 -310 l-65 -28 3 -48 3 -48 -58 -27 c-63 -29
-95 -70 -108 -138 -3 -20 7 -143 25 -285 17 -137 55 -450 86 -695 30 -245 79
-643 109 -885 296 -2396 284 -2304 305 -2345 28 -55 72 -88 128 -95 69 -9 72
-11 72 -47 0 -18 5 -40 10 -48 11 -18 34 -19 637 -22 l433 -3 -6 33 -6 33 38
-23 c33 -19 52 -23 124 -22 90 1 211 29 280 64 29 15 59 20 118 20 98 0 223
31 277 68 26 18 50 47 69 84 44 90 45 168 2 513 -71 570 -238 1918 -271 2195
-14 113 -29 237 -35 275 -5 39 -16 126 -24 195 -70 575 -147 1197 -157 1255
-27 173 -83 264 -188 305 -46 18 -201 16 -280 -5 -55 -14 -76 -15 -154 -5
-158 21 -305 -6 -369 -67 -27 -25 -28 -26 -28 -6 0 49 -6 51 -78 32 -104 -29
-97 -36 -112 104 -7 67 -13 138 -12 157 1 19 7 150 12 290 38 948 227 1806
573 2600 175 402 412 817 651 1140 38 52 101 151 138 219 393 709 901 1198
1593 1532 542 261 1151 406 1935 459 311 21 922 11 1255 -20 633 -60 1203
-209 1680 -439 692 -334 1200 -823 1593 -1532 37 -68 100 -167 138 -219 287
-389 566 -902 754 -1390 283 -733 436 -1500 470 -2350 5 -140 11 -271 12 -290
1 -19 -5 -90 -12 -157 -15 -140 -8 -133 -112 -104 -72 19 -78 17 -78 -32 0
-20 -1 -19 -28 6 -64 61 -211 88 -369 67 -78 -10 -99 -9 -154 5 -79 21 -234
23 -280 5 -105 -41 -161 -132 -188 -305 -10 -58 -87 -680 -157 -1255 -8 -69
-19 -156 -24 -195 -6 -38 -21 -162 -35 -275 -33 -277 -200 -1625 -271 -2195
-43 -345 -42 -423 2 -513 19 -37 43 -66 69 -84 54 -37 179 -68 277 -68 59 0
89 -5 118 -20 69 -35 190 -63 280 -64 72 -1 91 3 124 22 l38 23 -6 -33 -6 -33
433 3 c603 3 626 4 637 22 5 8 10 30 10 48 0 36 3 38 72 47 56 7 100 40 128
95 19 38 24 71 190 1415 82 667 157 1269 209 1695 28 223 69 554 91 735 24
194 39 344 35 365 -13 68 -45 109 -108 138 l-58 27 3 48 3 48 -65 28 c-137 57
-287 185 -369 310 -38 59 -68 137 -58 147 2 3 48 6 102 7 94 2 98 3 122 32
l26 29 -6 346 c-23 1369 -338 2568 -940 3575 -578 967 -1407 1708 -2410 2154
-629 280 -1286 442 -2052 506 -174 15 -741 27 -895 19z"/>
</g>
</svg>
